<?xml version="1.0" encoding="UTF-8"?> <!-- Generator: Adobe Illustrator 21.1.0, SVG Export Plug-In . SVG Version: 6.00 Build 0) --> <svg xmlns:svg="http://www.w3.org/2000/svg" xmlns="http://www.w3.org/2000/svg" xmlns:xlink="http://www.w3.org/1999/xlink" id="svg3409" x="0px" y="0px" viewBox="0 0 240.3 156.2" style="enable-background:new 0 0 240.3 156.2;" xml:space="preserve"><g id="layer1" transform="translate(-78.140625,-446.91352)"> <path fill="currentColor" d="M301.9,446.9c-9.1,0-16.5,7.4-16.5,16.5s7.4,16.5,16.5,16.5c9.1,0,16.5-7.4,16.5-16.5 S311,446.9,301.9,446.9z M138.9,447.7c-6.6,0-13.3,6.7-13.3,13.3c0,2.4,0,69.4,0,94.8c0,0,46.9,0,46.9,0v-61.1h48.2 c6.6,0,13.3,6.7,13.3,13.4v34.4c0,6.6-6.7,13.3-13.3,13.3l-48.2-0.1c0,0,0,47.3,0,47.4h39.8c40.7,0,74-22.9,74-79.5 c0-62.6-49-75.9-73.9-75.9L138.9,447.7L138.9,447.7z M125.6,555.8H78.1v36.5c0,5.4,5.4,10.8,10.8,10.8h36.6V555.8z M301.9,449.2 c7.9,0,13.9,6.3,13.9,14.3s-5.9,14.3-13.9,14.3s-13.9-6.3-13.9-14.3S294,449.2,301.9,449.2z M295.7,453.7v19.6h2.7v-8.7h3.8 l5.3,8.7h3l-5.5-8.7c2.3-0.5,4.5-2,4.5-5.5c0-3.5-2-5.4-6.4-5.4H295.7z M298.4,455.9h4.3c2.1,0,4.3,0.4,4.3,3.2 c0,3.4-2.9,3.3-5.5,3.3h-3.1V455.9z"></path> </g> </svg> 